PathFileType	4	(X/Y/Z)	RBDS018\RBDS018runT45.trc
DataRate	CameraRate	NumFrames	NumMarkers	Units	OrigDataRate	OrigDataStartFrame	OrigNumFrames
150.000000	150.000000	5	33	mm	150.000000	3375	4500
Frame#	Time	L.ASIS			L.Heel.Bottom			L.Heel.Lateral			L.Heel.Top			L.Iliac.Crest			L.MT1			L.MT5			L.PSIS			L.Shank.Bottom.Lateral			L.Shank.Bottom.Medial			L.Shank.Top.Lateral			L.Shank.Top.Medial			L.Thigh.Bottom.Lateral			L.Thigh.Bottom.Medial			L.Thigh.Top.Lateral			L.Thigh.Top.Medial			R.ASIS			R.ASY			R.Heel.Bottom			R.Heel.Lateral			R.Heel.Top			R.Iliac.Crest			R.MT1			R.MT5			R.PSIS			R.Shank.Bottom.Lateral			R.Shank.Bottom.Medial			R.Shank.Top.Lateral			R.Shank.Top.Medial			R.Thigh.Bottom.Lateral			R.Thigh.Bottom.Medial			R.Thigh.Top.Lateral			R.Thigh.Top.Medial			
		X1	Y1	Z1	X2	Y2	Z2	X3	Y3	Z3	X4	Y4	Z4	X5	Y5	Z5	X6	Y6	Z6	X7	Y7	Z7	X8	Y8	Z8	X9	Y9	Z9	X10	Y10	Z10	X11	Y11	Z11	X12	Y12	Z12	X13	Y13	Z13	X14	Y14	Z14	X15	Y15	Z15	X16	Y16	Z16	X17	Y17	Z17	X18	Y18	Z18	X19	Y19	Z19	X20	Y20	Z20	X21	Y21	Z21	X22	Y22	Z22	X23	Y23	Z23	X24	Y24	Z24	X25	Y25	Z25	X26	Y26	Z26	X27	Y27	Z27	X28	Y28	Z28	X29	Y29	Z29	X30	Y30	Z30	X31	Y31	Z31	X32	Y32	Z32	X33	Y33	Z33	

3376	22.5	2150.257344547093	947.5028236117748	910.7387117295226	1782.460807920059	674.4720971640187	962.9882226509112	1780.559387159026	643.0986175761728	915.8743388017319	1823.527296264139	644.8913716714552	961.9757525517276	2096.511497718285	1027.79392814999	842.4564687359037	1699.373194968697	466.3561959208885	998.0474164869592	1714.885192334788	492.2075451900024	887.8411098081434	1968.976720578263	987.7017700860436	919.8672891460653	1912.0319312417	575.9629199506531	896.6266052014103	1920.643385387594	605.5269196569417	938.2052933759164	1991.667947836486	564.8710278048782	884.1417031006019	2004.629017026083	593.4963952423901	927.2832202680055	2195.012973168618	562.0028050185495	842.0670120172762	2134.283636741879	545.6060771524278	878.1868868075924	2157.218711073482	662.7301567737289	824.1379052990585	2095.903500010975	644.4001179588427	852.3410889638764	2105.574899204739	987.9673000909914	1134.113407772709	736363122093.0565	-646252518.9640082	-247579061.0363241	1915.844877133994	35.45740431136233	978.4145239504318	1933.174394227092	49.63648530970844	1018.777683396449	1931.26808833704	84.46647234963226	981.2178804437083	2035.658180016781	1047.592287565716	1148.285076577856	2145.588461452405	44.18705974141717	967.2719069803568	2098.884061531278	41.15177311302618	1073.818037781289	1944.48877903919	1004.382814756963	1024.627453398193	2033.37437393804	174.2557640621747	1083.530599402908	1993.832418605311	198.8668789512327	1052.773266893067	2054.241730665022	247.563557510565	1113.9605066342	2016.01925573983	270.7374151842632	1082.205211805758	2113.525055158167	581.1219247604229	1176.930508162371	2063.8809151839	567.9610135473396	1125.666068520236	2069.691546044443	681.6159784384897	1192.032110331428	2021.732184237587	667.933868913982	1145.489802044941	
3377	22.50666666666667	2147.779978845176	946.5547878639442	911.0810235276667	1793.122698428351	664.0826630670772	959.5859433940257	1793.343669113087	632.3420529621487	912.8817918652056	1835.692507241589	636.8188263703474	959.4923507448614	2091.885102124284	1026.817813657627	842.7299306087552	1721.494946321076	452.327928425085	995.8237984147836	1736.812755937799	478.1178974886209	885.4227246512086	1966.647112986926	988.1209119335452	920.8129597780802	1928.553870523312	570.5445465012158	894.3170335450925	1935.941244543529	601.3947979936156	935.0994685709695	2008.362472878839	562.7768873230295	881.5979296202805	2020.068901060542	593.0150641438412	923.9863586955196	2211.360144665486	569.8398908031493	841.0884944144958	2151.285734766604	549.3092508192927	876.3255469008957	2167.678920395235	668.2458557939389	823.7249766252042	2107.195821671678	645.9987598798319	851.1495991798934	2103.586866578229	987.345172698159	1135.366091533822	737120185448.1333	-646913936.2925686	-247833664.1958862	1885.374538803263	37.00011670574116	979.1050650900593	1902.716288997679	50.81024124556421	1019.549860948857	1900.906433200423	85.90658524893009	982.3150713431515	2033.6708878259	1047.909441114382	1148.751755402099	2114.828603789805	45.06232056038371	968.0618551576439	2068.241281559781	41.30685958169706	1074.383691926751	1942.694679115133	1004.911675703534	1025.228895199423	2006.461572649053	174.7652465244461	1084.359891948689	1967.704992937196	200.7326141505471	1053.778404845175	2030.032294226363	247.2918675757162	1114.619735519615	1992.605432524444	271.7615285175606	1082.990417755627	2101.852793474176	578.7375459880301	1177.539990709553	2051.33171617023	566.9050678736596	1126.815002237242	2061.145412743575	680.5743918330543	1192.549531203979	2012.325490284113	668.2095520303909	1146.50205625235	
3378	22.51333333333334	2145.54809941536	947.1695882147143	910.9692206379444	1802.465728852229	651.7738414583769	956.7210369833264	1804.987743797263	619.9903498315759	910.2926160364949	1846.586649661615	627.2239471784457	957.3604532167162	2087.540114656684	1027.20594280812	843.1276278158106	1744.086814230871	436.4326930864021	993.6819450803822	1758.801376648539	462.6285146472139	883.1567746006046	1964.648265466181	989.3644125493954	922.0846671882073	1943.862553197444	564.5787712340863	892.2980442279199	1949.715053492328	596.7117008686786	932.2266163940707	2023.724937003623	560.8200842016813	879.2462279309387	2033.838783745595	592.6797894091133	920.8439153055466	2226.909876396797	579.4828737103355	840.3688566663905	2167.833639328273	554.9987432011064	874.9831896321465	2177.53156126371	675.2976202554789	823.5190678307421	2118.251460856314	649.3754880900607	850.557596148061	2102.359442098794	987.3426667069992	1136.174970238475	737877767522.459	-647575804.7443478	-248088441.8425807	1854.820408530971	38.98008680446267	980.0479911409991	1872.180286546612	52.14966707009043	1020.624054521057	1870.551171541271	87.73959992459746	983.9049704826549	2032.390631839026	1049.407919459164	1149.138215155914	2084.008932309205	45.82939442926631	968.9891363726084	2037.555712557367	41.25171344018749	1075.11747169541	1941.399482545529	1005.9953782058	1026.280385286998	1979.011852558862	175.6015139896058	1085.421075302274	1941.075423072593	202.8224663742068	1054.981511879073	2005.049700336589	247.285650574649	1115.46121258396	1968.454543350708	272.9522317852872	1083.934886992137	2089.460623289028	576.8267897082069	1178.058989821765	2037.876739436749	566.4631792377832	1128.120010980459	2052.334891322247	680.0745459629989	1192.919322504698	2002.511314832747	669.1847026692448	1147.560525981416	
3379	22.52	2143.639184562429	949.2281966694477	910.4580608226655	1810.89047124462	637.5356911877961	954.4898950157288	1815.852742319316	606.0676177643934	908.1824813764907	1856.536944327825	616.062693466732	955.6415387797001	2083.642859793665	1028.766568874446	843.6717495039992	1767.315384085596	418.9799656677807	991.6024384290769	1781.008628456774	446.0064518578394	881.0311375367897	1963.050013143161	991.3249845692676	923.7026552135134	1958.118475717248	558.0545487715053	890.6335762799192	1962.145340030024	591.3618865263011	929.7092102996672	2037.84221728889	558.8953123172158	877.1665132578217	2046.053215981561	592.2649111789448	917.9903480858059	2241.444440174479	590.5841932544249	839.9034769222894	2183.65890103061	562.4298343176968	874.171652072174	2186.677785588631	683.6077622988804	823.5135063760744	2128.907712071803	654.3353478040407	850.5547448191826	2101.944653871717	987.8535758770985	1136.573624482377	738635868493.6792	-648238124.4731342	-248343394.0361765	1824.196787533167	41.51509498908841	981.1471146795193	1841.597441597941	53.83013140504299	1021.885846351591	1840.264392788989	90.08585505275022	985.7947251529047	2031.925386804285	1051.87788230686	1149.496336665995	2053.142261310301	46.39644633917867	969.9216484081242	2006.841942522643	41.04818996548655	1075.904235232899	1940.653621771519	1007.572345881283	1027.805579461546	1951.176411042841	176.909861427623	1086.546505225194	1914.040292307655	205.2798898055329	1056.239802087818	1979.451839101428	247.7227257842834	1116.353019631231	1943.661116512115	274.4819465425613	1084.932613362586	2076.390493423488	575.4831692722119	1178.405175386494	2023.615969968058	566.7750371204054	1129.459197190924	2043.292129244865	680.1453081519422	1193.113374585643	1992.374749636922	670.9223413233776	1148.601837975366	
3380	22.52666666666667	2142.117799933908	952.5538686227036	909.6386169583027	1818.853288335896	621.4009763048334	952.9611109096101	1826.333693663223	590.6173679027578	906.6108093852275	1865.926079096743	603.3219034760854	954.3810583518655	2080.327412228482	1031.303725842054	844.3789323685064	1791.355963449716	400.3077275563846	989.5717919665965	1803.589842007273	428.5133812755994	879.0384515856576	1961.901451600636	993.909190308864	925.6757372307536	1971.542294060199	550.9576346787305	889.3666808130199	1973.491236880408	585.2287479114364	927.6559171378998	2050.863348371483	556.881868556622	875.4293200188739	2056.907314872717	591.5346940363215	915.5541065192268	2254.795143420822	602.749560783996	839.6775032360326	2198.528487693832	571.2983035763534	873.8844390833823	2195.049106809392	692.8618273478617	823.688577306866	2139.016505631454	660.6284916207572	851.0958882590988	2102.351021643988	988.7773434195892	1136.633264702709	739394488539.4392	-648900895.6327156	-248598520.8364425	1793.571681929168	44.75746703262862	982.3266297777906	1811.053765537858	56.05417546368692	1023.239388830311	1810.159632386053	93.0879834503741	987.8203636515123	2032.358347851372	1055.080654354383	1149.884046814578	2022.25265013938	46.70785122586638	970.7588436148835	1976.140462420955	40.75672194150867	1076.646009568338	1940.488418378069	1009.604933084321	1029.808817759081	1923.127688101176	178.868618460781	1087.594967909624	1886.73877494061	208.2724086448633	1057.410803766326	1953.408946962057	248.8222776698755	1117.172541360241	1918.354555327597	276.5566003451109	1085.862209672589	2062.713097035296	574.8254140701044	1178.488171203428	2008.699037701147	568.0099772432752	1130.683123178087	2034.06925643147	680.8313361865639	1193.112910175545	1982.036114723181	673.5046281798629	1149.557235080214	
